#!OML:ASF E:\acrobat2\Project_11_07_03\Capture day 1\Session 1\Acrobat.ASF
:FULLY-SPECIFIED
:DEGREES
447
root 10.8696 3.45572 -6.77315 139.155 3.28932 -181.533
lowerback 46.9637 -0.0554269 -8.28546
upperback 14.0104 2.9167 -2.62436
thorax -5.37696 4.29451 -0.123269
lowerneck -6.36312 -2.14802 -1.98584
upperneck 7.18327 -2.87463 2.78859
head 3.5361 -1.34539 1.12432
rclavicle -2.56432e-014 1.43125e-014
rhumerus 23.3179 17.1696 -66.1051
rradius 26.9947
rwrist -2.59962
rhand -14.2478 -394.526
rfingers 7.12502
rthumb 11.8902 295.832
lclavicle -2.56432e-014 1.43125e-014
lhumerus 40.9298 -30.9127 34.0235
lradius 21.6515
lwrist -3.57016
lhand -23.6057 -374.617
lfingers 7.12502
lthumb 2.85811 15.3441
rfemur -109.165 4.36483 31.7262
rtibia 36.755
rfoot 188.205 11.5281
rtoes 8.31257
lfemur -108.955 7.35586 -30.0581
ltibia 33.5349
lfoot -175.942 -5.53409
ltoes 55.2034
448
root 10.8529 3.57413 -6.89836 140.572 3.18797 -181.222
lowerback 46.9814 -0.244783 -8.14432
upperback 14.1991 2.85903 -2.57775
thorax -5.17043 4.29252 -0.106754
lowerneck -6.31707 -2.17378 -1.87726
upperneck 6.41824 -2.91218 2.68064
head 3.2577 -1.37614 1.06615
rclavicle 2.84262e-014 -3.18055e-015
rhumerus 24.7512 16.2081 -65.8564
rradius 26.6103
rwrist -2.44016
rhand -14.0551 -395.098
rfingers 7.12502
rthumb 12.076 295.271
lclavicle 2.84262e-014 -3.18055e-015
lhumerus 41.7272 -29.5325 34.0657
lradius 21.5887
lwrist -4.07424
lhand -23.0649 -373.907
lfingers 7.12502
lthumb 3.38039 16.046
rfemur -109.592 4.30597 31.7505
rtibia 36.1692
rfoot 184.663 10.5106
rtoes 12.7319
lfemur -109.173 6.95908 -30.3349
ltibia 33.311
lfoot -178.085 -5.57676
ltoes 58.8037
449
root 10.838 3.69695 -7.03367 141.96 3.13002 -180.934
lowerback 46.7028 -0.408787 -7.96766
upperback 14.4505 2.85965 -2.52569
thorax -4.82802 4.30765 -0.105211
lowerneck -6.00128 -2.20279 -2.075
upperneck 5.61988 -2.94928 2.95499
head 2.93569 -1.39861 1.19026
rclavicle -1.47101e-014 -2.22639e-014
rhumerus 26.0258 15.1989 -65.7119
rradius 26.397
rwrist -2.2023
rhand -14.0074 -395.444
rfingers 7.12502
rthumb 12.1219 294.927
lclavicle -1.47101e-014 -2.22639e-014
lhumerus 42.5009 -28.0533 34.4309
lradius 21.4505
lwrist -4.90584
lhand -22.4569 -373.334
lfingers 7.12502
lthumb 3.96758 16.6087
rfemur -109.974 4.36618 31.7739
rtibia 35.0404
rfoot 182.212 9.22646
rtoes 6.79152
lfemur -109.405 6.6877 -30.2605
ltibia 32.284
lfoot -178.044 -2.03332
ltoes 56.045
450
root 10.8209 3.82426 -7.1705 143.344 2.73468 -181.081
lowerback 46.2837 -0.441037 -8.28603
upperback 14.641 2.77029 -2.53471
thorax -4.4979 4.25374 0.117616
lowerneck -5.38732 -2.29401 -2.26585
upperneck 4.76768 -3.06265 3.11998
head 2.54453 -1.46463 1.27557
rclavicle -2.78299e-015 -4.29375e-014
rhumerus 27.068 14.2326 -65.7982
rradius 26.3047
rwrist -1.76238
rhand -14.0621 -395.891
rfingers 7.12502
rthumb 12.0692 294.477
lclavicle -2.78299e-015 -4.29375e-014
lhumerus 42.96 -26.3106 35.5684
lradius 21.1156
lwrist -6.22456
lhand -21.8295 -373.034
lfingers 7.12502
lthumb 4.57339 16.8968
rfemur -110.458 4.34584 31.3018
rtibia 33.8616
rfoot 180.753 8.72492
rtoes -1.25453
lfemur -109.602 6.27482 -30.7219
ltibia 31.4962
lfoot -178.326 0.765502
ltoes 50.9551
451
root 10.8023 3.95742 -7.3033 144.791 2.2079 -181.242
lowerback 45.8179 -0.505925 -8.50681
upperback 14.7078 2.61701 -2.55382
thorax -4.29577 4.14936 0.299507
lowerneck -4.68379 -2.44858 -2.01152
upperneck 4.06444 -3.26921 2.77541
head 2.17303 -1.58361 1.1171
rclavicle -7.95139e-016 -1.27222e-014
rhumerus 27.8394 13.0598 -66.2058
rradius 26.0868
rwrist -0.823593
rhand -14.0271 -396.226
rfingers 7.12502
rthumb 12.103 294.144
lclavicle -7.95139e-016 -1.27222e-014
lhumerus 43.6082 -25.2509 36.2215
lradius 20.8873
lwrist -6.92896
lhand -21.3496 -372.828
lfingers 7.12502
lthumb 5.0368 17.092
rfemur -110.924 4.10059 30.6608
rtibia 33.2543
rfoot 179.715 8.83521
rtoes -1.02658
lfemur -109.74 5.71276 -31.3282
ltibia 31.3912
lfoot -178.645 0.882689
ltoes 51.6697
452
root 10.783 4.10072 -7.43227 146.251 1.96361 -181.147
lowerback 45.2557 -0.57626 -8.35142
upperback 14.773 2.60279 -2.44423
thorax -4.09707 4.10089 0.379564
lowerneck -4.23156 -2.49582 -2.02037
upperneck 3.85678 -3.33408 2.77362
head 2.02471 -1.62043 1.12008
rclavicle -5.96354e-015 3.18055e-014
rhumerus 28.548 11.8882 -66.454
rradius 25.7879
rwrist 0.144971
rhand -14.1287 -396.091
rfingers 7.12502
rthumb 12.005 294.273
lclavicle -5.96354e-015 3.18055e-014
lhumerus 44.5078 -24.7527 36.4677
lradius 20.8423
lwrist -6.89586
lhand -21.0012 -372.59
lfingers 7.12502
lthumb 5.37317 17.3222
rfemur -111.049 3.94994 30.4995
rtibia 33.0093
rfoot 178.093 8.78168
rtoes -0.167479
lfemur -109.712 5.30388 -31.5722
ltibia 31.0931
lfoot -179.63 2.47224
ltoes 48.2659
